<svg width="120" height="80" viewBox="0 0 120 80" fill="none" xmlns="http://www.w3.org/2000/svg">
  <defs>
    <linearGradient id="agroGradient" x1="0%" y1="0%" x2="100%" y2="100%">
      <stop offset="0%" style="stop-color:#10B981;stop-opacity:1" />
      <stop offset="100%" style="stop-color:#047857;stop-opacity:1" />
    </linearGradient>
  </defs>
  <rect width="120" height="80" rx="12" fill="url(#agroGradient)"/>
  
  <!-- Farm/Agriculture icon -->
  <g transform="translate(25, 15)">
    <!-- Barn/Silo -->
    <rect x="0" y="25" width="15" height="25" fill="white" opacity="0.9" rx="2"/>
    <polygon points="0,25 7.5,15 15,25" fill="white" opacity="0.8"/>
    
    <!-- Silo -->
    <rect x="20" y="20" width="8" height="30" fill="white" opacity="0.8" rx="4"/>
    <ellipse cx="24" cy="20" rx="4" ry="2" fill="white" opacity="0.9"/>
    
    <!-- Wheat/Crops -->
    <g transform="translate(35, 20)">
      <!-- Wheat stalks -->
      <path d="M0,30 Q2,25 0,20 Q-2,25 0,30" fill="white" opacity="0.7"/>
      <path d="M5,30 Q7,25 5,20 Q3,25 5,30" fill="white" opacity="0.7"/>
      <path d="M10,30 Q12,25 10,20 Q8,25 10,30" fill="white" opacity="0.7"/>
      <path d="M15,30 Q17,25 15,20 Q13,25 15,30" fill="white" opacity="0.7"/>
      <path d="M20,30 Q22,25 20,20 Q18,25 20,30" fill="white" opacity="0.7"/>
      <path d="M25,30 Q27,25 25,20 Q23,25 25,30" fill="white" opacity="0.7"/>
      
      <!-- Wheat grains -->
      <circle cx="0" cy="22" r="0.8" fill="white" opacity="0.9"/>
      <circle cx="0" cy="24" r="0.8" fill="white" opacity="0.9"/>
      <circle cx="0" cy="26" r="0.8" fill="white" opacity="0.9"/>
      
      <circle cx="5" cy="22" r="0.8" fill="white" opacity="0.9"/>
      <circle cx="5" cy="24" r="0.8" fill="white" opacity="0.9"/>
      <circle cx="5" cy="26" r="0.8" fill="white" opacity="0.9"/>
      
      <circle cx="10" cy="22" r="0.8" fill="white" opacity="0.9"/>
      <circle cx="10" cy="24" r="0.8" fill="white" opacity="0.9"/>
      <circle cx="10" cy="26" r="0.8" fill="white" opacity="0.9"/>
      
      <circle cx="15" cy="22" r="0.8" fill="white" opacity="0.9"/>
      <circle cx="15" cy="24" r="0.8" fill="white" opacity="0.9"/>
      <circle cx="15" cy="26" r="0.8" fill="white" opacity="0.9"/>
      
      <circle cx="20" cy="22" r="0.8" fill="white" opacity="0.9"/>
      <circle cx="20" cy="24" r="0.8" fill="white" opacity="0.9"/>
      <circle cx="20" cy="26" r="0.8" fill="white" opacity="0.9"/>
      
      <circle cx="25" cy="22" r="0.8" fill="white" opacity="0.9"/>
      <circle cx="25" cy="24" r="0.8" fill="white" opacity="0.9"/>
      <circle cx="25" cy="26" r="0.8" fill="white" opacity="0.9"/>
    </g>
    
    <!-- Barn door -->
    <rect x="5" y="35" width="5" height="15" fill="#047857" opacity="0.6"/>
  </g>
</svg>