<svg width="120" height="80" viewBox="0 0 120 80" fill="none" xmlns="http://www.w3.org/2000/svg">
  <defs>
    <linearGradient id="criGradient" x1="0%" y1="0%" x2="100%" y2="100%">
      <stop offset="0%" style="stop-color:#3B82F6;stop-opacity:1" />
      <stop offset="100%" style="stop-color:#1E40AF;stop-opacity:1" />
    </linearGradient>
  </defs>
  <rect width="120" height="80" rx="12" fill="url(#criGradient)"/>
  
  <!-- Building icon -->
  <g transform="translate(30, 20)">
    <!-- Main building -->
    <rect x="0" y="15" width="20" height="25" fill="white" opacity="0.9" rx="2"/>
    <rect x="25" y="10" width="18" height="30" fill="white" opacity="0.8" rx="2"/>
    <rect x="48" y="18" width="12" height="22" fill="white" opacity="0.7" rx="1"/>
    
    <!-- Windows -->
    <rect x="3" y="18" width="3" height="3" fill="#1E40AF" opacity="0.6"/>
    <rect x="8" y="18" width="3" height="3" fill="#1E40AF" opacity="0.6"/>
    <rect x="14" y="18" width="3" height="3" fill="#1E40AF" opacity="0.6"/>
    
    <rect x="3" y="24" width="3" height="3" fill="#1E40AF" opacity="0.6"/>
    <rect x="8" y="24" width="3" height="3" fill="#1E40AF" opacity="0.6"/>
    <rect x="14" y="24" width="3" height="3" fill="#1E40AF" opacity="0.6"/>
    
    <rect x="28" y="15" width="3" height="3" fill="#1E40AF" opacity="0.6"/>
    <rect x="34" y="15" width="3" height="3" fill="#1E40AF" opacity="0.6"/>
    <rect x="28" y="21" width="3" height="3" fill="#1E40AF" opacity="0.6"/>
    <rect x="34" y="21" width="3" height="3" fill="#1E40AF" opacity="0.6"/>
    <rect x="28" y="27" width="3" height="3" fill="#1E40AF" opacity="0.6"/>
    <rect x="34" y="27" width="3" height="3" fill="#1E40AF" opacity="0.6"/>
    
    <rect x="51" y="23" width="2" height="2" fill="#1E40AF" opacity="0.6"/>
    <rect x="55" y="23" width="2" height="2" fill="#1E40AF" opacity="0.6"/>
    <rect x="51" y="28" width="2" height="2" fill="#1E40AF" opacity="0.6"/>
    <rect x="55" y="28" width="2" height="2" fill="#1E40AF" opacity="0.6"/>
  </g>
</svg>