<svg width="120" height="80" viewBox="0 0 120 80" fill="none" xmlns="http://www.w3.org/2000/svg">
  <defs>
    <linearGradient id="energyGradient" x1="0%" y1="0%" x2="100%" y2="100%">
      <stop offset="0%" style="stop-color:#F59E0B;stop-opacity:1" />
      <stop offset="100%" style="stop-color:#D97706;stop-opacity:1" />
    </linearGradient>
  </defs>
  <rect width="120" height="80" rx="12" fill="url(#energyGradient)"/>
  
  <!-- Energy/Solar panel icon -->
  <g transform="translate(20, 15)">
    <!-- Solar panels -->
    <rect x="0" y="20" width="25" height="15" fill="white" opacity="0.9" rx="2"/>
    <rect x="30" y="25" width="25" height="15" fill="white" opacity="0.8" rx="2"/>
    <rect x="60" y="18" width="20" height="12" fill="white" opacity="0.7" rx="2"/>
    
    <!-- Panel grid lines -->
    <line x1="8" y1="20" x2="8" y2="35" stroke="#D97706" stroke-width="1" opacity="0.4"/>
    <line x1="17" y1="20" x2="17" y2="35" stroke="#D97706" stroke-width="1" opacity="0.4"/>
    <line x1="0" y1="27" x2="25" y2="27" stroke="#D97706" stroke-width="1" opacity="0.4"/>
    
    <line x1="38" y1="25" x2="38" y2="40" stroke="#D97706" stroke-width="1" opacity="0.4"/>
    <line x1="47" y1="25" x2="47" y2="40" stroke="#D97706" stroke-width="1" opacity="0.4"/>
    <line x1="30" y1="32" x2="55" y2="32" stroke="#D97706" stroke-width="1" opacity="0.4"/>
    
    <line x1="67" y1="18" x2="67" y2="30" stroke="#D97706" stroke-width="1" opacity="0.4"/>
    <line x1="73" y1="18" x2="73" y2="30" stroke="#D97706" stroke-width="1" opacity="0.4"/>
    <line x1="60" y1="24" x2="80" y2="24" stroke="#D97706" stroke-width="1" opacity="0.4"/>
    
    <!-- Sun -->
    <circle cx="70" cy="10" r="6" fill="white" opacity="0.9"/>
    <g transform="translate(70, 10)">
      <line x1="-10" y1="0" x2="-8" y2="0" stroke="white" stroke-width="2" opacity="0.8"/>
      <line x1="8" y1="0" x2="10" y2="0" stroke="white" stroke-width="2" opacity="0.8"/>
      <line x1="0" y1="-10" x2="0" y2="-8" stroke="white" stroke-width="2" opacity="0.8"/>
      <line x1="0" y1="8" x2="0" y2="10" stroke="white" stroke-width="2" opacity="0.8"/>
      <line x1="-7" y1="-7" x2="-6" y2="-6" stroke="white" stroke-width="2" opacity="0.8"/>
      <line x1="6" y1="6" x2="7" y2="7" stroke="white" stroke-width="2" opacity="0.8"/>
      <line x1="7" y1="-7" x2="6" y2="-6" stroke="white" stroke-width="2" opacity="0.8"/>
      <line x1="-6" y1="6" x2="-7" y2="7" stroke="white" stroke-width="2" opacity="0.8"/>
    </g>
    
    <!-- Support poles -->
    <rect x="12" y="35" width="2" height="15" fill="white" opacity="0.6"/>
    <rect x="42" y="40" width="2" height="10" fill="white" opacity="0.6"/>
    <rect x="69" y="30" width="2" height="20" fill="white" opacity="0.6"/>
  </g>
</svg>